<?xml version="1.0" encoding="UTF-8"?>
<svg xmlns="http://www.w3.org/2000/svg" xmlns:xlink="http://www.w3.org/1999/xlink" width="3000" height="3000" viewBox="0 0 3000 3000">
<rect x="-300" y="-300" width="3600" height="3600" fill="rgb(100%, 100%, 100%)" fill-opacity="1"/>
<path fill-rule="evenodd" fill="rgb(0%, 0%, 0%)" fill-opacity="1" d="M 1500 653.449219 C 1280.480469 653.449219 1069.910156 740.679688 914.679688 895.898438 C 759.453125 1051.128906 672.230469 1261.699219 672.230469 1481.21875 C 672.230469 1481.269531 672.230469 1481.308594 672.230469 1481.359375 C 672.722656 1623.640625 709.984375 1763.269531 780.105469 1886.871094 L 776.472656 1901.558594 L 692.347656 2241.34375 C 677.074219 2303.046875 737.246094 2360.960938 798.320312 2343.339844 L 1134.640625 2246.296875 L 1166.261719 2237.175781 C 1271.21875 2283.984375 1384.808594 2308.507812 1499.839844 2308.992188 C 1499.890625 2308.992188 1499.949219 2308.992188 1500 2308.992188 C 1719.519531 2308.992188 1930.101562 2221.773438 2085.320312 2066.542969 C 2240.550781 1911.320312 2327.769531 1700.75 2327.769531 1481.21875 C 2327.769531 1261.699219 2240.550781 1051.121094 2085.320312 895.898438 C 1930.101562 740.671875 1719.519531 653.449219 1500 653.449219 Z M 1500 728.449219 C 1699.660156 728.449219 1891.109375 807.75 2032.289062 948.929688 C 2173.46875 1090.121094 2252.769531 1281.558594 2252.769531 1481.21875 C 2252.769531 1680.890625 2173.46875 1872.328125 2032.289062 2013.511719 C 1891.128906 2154.679688 1699.699219 2233.976562 1500.070312 2233.992188 C 1391.160156 2233.519531 1283.640625 2209.417969 1184.949219 2163.351562 C 1176.730469 2159.515625 1167.410156 2158.789062 1158.691406 2161.300781 L 1113.851562 2174.242188 L 777.527344 2271.28125 C 768.460938 2273.898438 762.882812 2268.53125 765.152344 2259.367188 L 849.273438 1919.578125 L 856.511719 1890.339844 C 858.878906 1880.789062 857.390625 1870.691406 852.375 1862.210938 C 784.007812 1746.828125 747.710938 1615.28125 747.230469 1481.160156 C 747.246094 1281.519531 826.542969 1090.101562 967.710938 948.929688 C 1108.890625 807.75 1300.339844 728.449219 1500 728.449219 Z M 1500 728.449219 "/>
<path fill-rule="nonzero" fill="rgb(0%, 0%, 0%)" fill-opacity="1" d="M 1427.769531 1838.058594 L 1560.253906 1838.058594 L 1560.253906 1976.535156 L 1427.769531 1976.535156 Z M 1203.410156 1304.800781 C 1203.410156 1208.929688 1230.480469 1131.929688 1284.628906 1073.789062 C 1338.78125 1015.199219 1413.121094 985.910156 1507.660156 985.910156 C 1595.089844 985.910156 1665 1010.980469 1717.371094 1061.140625 C 1770.179688 1110.851562 1796.589844 1174.539062 1796.589844 1252.210938 C 1796.589844 1299.25 1786.828125 1337.421875 1767.300781 1366.710938 C 1748.21875 1396.011719 1709.378906 1439.058594 1650.789062 1495.871094 C 1608.179688 1537.148438 1580.441406 1572.210938 1567.570312 1601.058594 C 1555.148438 1629.460938 1548.929688 1671.628906 1548.929688 1727.550781 L 1430.429688 1727.550781 C 1430.429688 1664.078125 1437.980469 1613.039062 1453.070312 1574.429688 C 1468.160156 1535.371094 1501.21875 1490.769531 1552.261719 1440.609375 L 1605.519531 1388.019531 C 1621.5 1372.929688 1634.371094 1357.171875 1644.140625 1340.75 C 1661.890625 1311.898438 1670.769531 1281.941406 1670.769531 1250.871094 C 1670.769531 1207.378906 1657.671875 1169.660156 1631.480469 1137.699219 C 1605.738281 1105.738281 1562.910156 1089.769531 1503 1089.769531 C 1428.878906 1089.769531 1377.609375 1117.28125 1349.210938 1172.320312 C 1333.230469 1202.941406 1324.128906 1247.101562 1321.910156 1304.800781 Z M 1203.410156 1304.800781 "/>
</svg>
